<?xml version="1.0" encoding="UTF-8"?>
<svg version="1.1" xmlns="http://www.w3.org/2000/svg" width="1024" height="1024">
<path d="M0 0 C337.92 0 675.84 0 1024 0 C1024 337.92 1024 675.84 1024 1024 C686.08 1024 348.16 1024 0 1024 C0 686.08 0 348.16 0 0 Z " fill="#F8F6F6" transform="translate(0,0)"/>
<path d="M0 0 C0.83789062 -0.00773437 1.67578125 -0.01546875 2.5390625 -0.0234375 C18.97971475 0.02746235 32.0408463 6.6996022 44.0625 17.625 C51.80053064 25.60674814 62 41.77865683 62 53.25 C62.81452637 53.39248169 62.81452637 53.39248169 63.64550781 53.5378418 C79.77305178 56.41288534 92.80591602 59.55790232 105 71.25 C105.44518982 71.94508667 105.89037964 72.64017334 106.34906006 73.35632324 C107.83418426 75.4349797 107.83418426 75.4349797 110.15802002 75.74206543 C110.99435974 75.73888306 111.83069946 75.73570068 112.69238281 75.73242188 C114.12097626 75.74263367 114.12097626 75.74263367 115.57843018 75.75305176 C117.12515411 75.73607239 117.12515411 75.73607239 118.703125 75.71875 C119.7731073 75.72579956 120.8430896 75.73284912 121.94549561 75.7401123 C126.52075606 75.76954055 131.09559138 75.75313071 135.67089844 75.74072266 C172.41955918 75.71420847 172.41955918 75.71420847 186 88.25 C196.62239521 99.30963666 205.11572415 111.80339098 205.12939453 127.63525391 C205.13254669 128.68629303 205.13569885 129.73733215 205.13894653 130.82022095 C205.13591019 132.50636002 205.13591019 132.50636002 205.1328125 134.2265625 C205.13424759 135.96986343 205.13424759 135.96986343 205.13571167 137.74838257 C205.1363913 140.2010707 205.13455217 142.65376065 205.13037109 145.10644531 C205.12501015 148.86787939 205.13032845 152.62919459 205.13671875 156.390625 C205.13605812 158.77343776 205.13477727 161.15625045 205.1328125 163.5390625 C205.13483673 164.66720367 205.13686096 165.79534485 205.13894653 166.95767212 C205.13579437 168.00240692 205.13264221 169.04714172 205.12939453 170.12353516 C205.12820114 171.50322983 205.12820114 171.50322983 205.12698364 172.91079712 C205 175.25 205 175.25 204 178.25 C201.85791016 179.29321289 201.85791016 179.29321289 199.0390625 180.22265625 C198.00910156 180.56490234 196.97914063 180.90714844 195.91796875 181.25976562 C194.83128906 181.60716797 193.74460937 181.95457031 192.625 182.3125 C191.57699219 182.66376953 190.52898437 183.01503906 189.44921875 183.37695312 C182.68365661 185.58893234 176.01024331 187.05395183 169 188.25 C168.99413376 187.51830093 168.98826752 186.78660187 168.98222351 186.0327301 C168.92408384 179.10403326 168.85188691 172.17560661 168.76428509 165.24722385 C168.7197438 161.6860796 168.68045322 158.12504546 168.65356445 154.5637207 C168.62234345 150.46016331 168.56756222 146.35720301 168.51171875 142.25390625 C168.50213387 140.35494347 168.50213387 140.35494347 168.49235535 138.4176178 C168.31985431 126.7109053 168.31985431 126.7109053 162.75 116.8125 C156.55019635 113.28988429 150.74823396 112.96670537 143.78515625 113.0546875 C142.92941513 113.0575174 142.07367401 113.06034729 141.19200134 113.06326294 C138.48202009 113.07438065 135.77237991 113.09946918 133.0625 113.125 C131.21549959 113.13504069 129.36849396 113.14416463 127.52148438 113.15234375 C123.01419323 113.17429237 118.50715427 113.20876346 114 113.25 C114.01848999 114.56411865 114.01848999 114.56411865 114.03735352 115.90478516 C114.04694092 117.06284668 114.05652832 118.2209082 114.06640625 119.4140625 C114.08489624 121.13036865 114.08489624 121.13036865 114.10375977 122.88134766 C113.89596531 129.62757802 112.46059681 135.11609202 107.8125 140.125 C101.20778884 146.07064232 94.2131273 148.40086755 85.44197083 148.39044189 C84.27665495 148.39489858 84.27665495 148.39489858 83.08779734 148.3994453 C80.47624535 148.40813902 77.86473916 148.40964112 75.25317383 148.41113281 C73.383961 148.41576058 71.51474911 148.42078518 69.64553833 148.42617798 C64.56063061 148.43930958 59.4757361 148.44574863 54.39081407 148.45018864 C51.21391195 148.45311865 48.03701344 148.45722337 44.86011314 148.46169281 C34.92035495 148.47537088 24.98060502 148.48503554 15.04083806 148.4888947 C3.56722336 148.49337378 -7.90627212 148.51091347 -19.37985057 148.5398953 C-28.24790573 148.56151779 -37.11592737 148.57159932 -45.98400861 148.57293582 C-51.28053036 148.57398361 -56.57694008 148.5798857 -61.87343407 148.59775543 C-66.85812989 148.61424545 -71.84262959 148.61638704 -76.82734299 148.60761642 C-78.65424309 148.6068465 -80.48115378 148.61118285 -82.30802727 148.62107468 C-84.80793462 148.63381385 -87.30714945 148.62790687 -89.80705261 148.61749268 C-90.88378566 148.62957728 -90.88378566 148.62957728 -91.9822709 148.64190602 C-99.29575664 148.57096954 -105.69193216 146.41062151 -111 141.25 C-116.16035996 134.46781263 -117.30732714 128.64984712 -117.125 120.375 C-117.11597656 119.59125 -117.10695313 118.8075 -117.09765625 118 C-117.07428063 116.08319945 -117.03841653 114.16655809 -117 112.25 C-121.51711924 112.31953551 -126.03339432 112.4078073 -130.54980469 112.51245117 C-132.08193209 112.54542955 -133.61417309 112.57354311 -135.14648438 112.59643555 C-149.55857422 112.36275019 -149.55857422 112.36275019 -162.25390625 118.1171875 C-162.90166016 119.11105469 -162.90166016 119.11105469 -163.5625 120.125 C-164.24505859 121.11113281 -164.24505859 121.11113281 -164.94140625 122.1171875 C-166.95819883 126.18054083 -167.12531578 130.28339974 -167.12863445 134.75957108 C-167.13347112 136.41208291 -167.13347112 136.41208291 -167.1384055 138.09797883 C-167.1368569 139.30292426 -167.1353083 140.50786969 -167.13371277 141.74932861 C-167.1371111 143.67569015 -167.1371111 143.67569015 -167.14057809 145.64096808 C-167.14669561 149.20379801 -167.14656255 152.76660447 -167.14538372 156.32943845 C-167.14517969 160.17277974 -167.15069864 164.01611351 -167.15544128 167.85945129 C-167.16374838 175.38897376 -167.16649616 182.9184884 -167.16705366 190.44801506 C-167.16752884 196.56910173 -167.16958369 202.69018582 -167.17275429 208.81127167 C-167.18156141 226.16746272 -167.18617363 243.52364758 -167.18542381 260.87984088 C-167.18536388 262.283409 -167.18536388 262.283409 -167.18530273 263.71533203 C-167.18524141 265.12061506 -167.18524141 265.12061506 -167.18517885 266.55428764 C-167.18477248 281.73453773 -167.19433977 296.91476299 -167.2084411 312.0950059 C-167.22280754 327.68373049 -167.22971112 343.27244297 -167.22884732 358.86117435 C-167.22851542 367.61230692 -167.23125943 376.36341349 -167.24202538 385.1145401 C-167.25113394 392.56621755 -167.25330274 400.01785721 -167.24651595 407.46953782 C-167.24325241 411.27011409 -167.24318805 415.07061786 -167.2518692 418.87118721 C-167.26119184 422.99509186 -167.25495375 427.11882887 -167.24723816 431.24273682 C-167.25238172 432.43875936 -167.25752529 433.6347819 -167.26282471 434.86704755 C-167.22714804 443.49457405 -167.17231092 452.61476576 -161 459.25 C-153.58365083 463.46394929 -146.47098384 463.78182391 -138.12158203 463.62133789 C-136.87143311 463.61400635 -135.62128418 463.6066748 -134.33325195 463.59912109 C-131.63305283 463.58173526 -128.93393406 463.55738159 -126.2340126 463.52189827 C-121.9536624 463.46768941 -117.67369006 463.45216017 -113.39303589 463.44371033 C-101.22752549 463.41474194 -89.06274639 463.34974996 -76.89794922 463.21264648 C-70.16400152 463.13707913 -63.43102311 463.10136886 -56.69664276 463.10867494 C-53.14283128 463.11072374 -49.59178791 463.09245368 -46.03857803 463.0240345 C-21.59701184 462.56958843 -21.59701184 462.56958843 -15.00123405 468.05219936 C-12.78649191 470.28814999 -10.91191916 472.75424616 -9 475.25 C-2.22245591 480.92874082 4.8010832 485.00049983 13 488.25 C13.84175781 488.64316406 14.68351563 489.03632812 15.55078125 489.44140625 C28.54563462 494.83868978 45.83181917 494.04588153 59.01171875 489.5 C71.39591828 484.31968124 82.57846545 476.37443591 91.73046875 466.52734375 C94.39721373 463.84418803 96.79637438 464.12075499 100.42431641 464.1081543 C101.55954742 464.10111984 102.69477844 464.09408539 103.8644104 464.08683777 C105.09767059 464.08267349 106.33093079 464.07850922 107.6015625 464.07421875 C110.20183094 464.05101297 112.80209138 464.02689533 115.40234375 464.00195312 C119.5102534 463.96562934 123.61801558 463.9358404 127.72607422 463.92407227 C131.68484846 463.91198899 135.64301233 463.86832389 139.6015625 463.82421875 C140.82267731 463.82612717 142.04379211 463.82803558 143.3019104 463.83000183 C151.47289124 463.71325113 157.43597814 462.90781191 163.375 456.8125 C169.12047845 447.75232244 168.10063908 436.97036065 167.96484375 426.59375 C167.95881725 424.16536988 167.95564887 421.73698128 167.95507812 419.30859375 C167.95335824 415.52238371 167.93731938 411.73932085 167.87329102 407.95361328 C167.5249648 385.68096993 167.5249648 385.68096993 171.22705078 380.3046875 C173.71065517 377.76702372 175.85699808 375.8857874 179 374.25 C179.66 374.25 180.32 374.25 181 374.25 C181.33 373.26 181.66 372.27 182 371.25 C183.6312802 369.54868273 185.3053673 367.88822329 187 366.25 C189.04533614 364.08502971 191.05216277 361.88496296 193.0625 359.6875 C200.69621434 351.34854863 200.69621434 351.34854863 203 349.25 C203.66 349.25 204.32 349.25 205 349.25 C205.02322795 361.96801522 205.04096823 374.68602534 205.05181217 387.4040575 C205.05701819 393.31031357 205.0640742 399.21655506 205.07543945 405.12280273 C205.08634966 410.82864715 205.09229401 416.5344776 205.09487724 422.24033165 C205.09671688 424.41108101 205.10030911 426.58182965 205.10573006 428.75257301 C205.11304858 431.80617517 205.11398642 434.85972048 205.11352539 437.91333008 C205.11712067 438.79950516 205.12071594 439.68568024 205.12442017 440.59870911 C205.0988237 456.39088317 202.5060648 468.03640322 192 480.25 C191.56300781 480.84167969 191.12601563 481.43335938 190.67578125 482.04296875 C183.14191855 491.92974954 170.75812649 498.87853124 158.59847069 500.78265858 C152.97331298 501.45736904 147.35210402 501.39140234 141.69400024 501.38371277 C140.46663222 501.38597833 139.23926419 501.38824388 137.97470319 501.39057809 C134.58423612 501.39579796 131.19382226 501.39656559 127.80335498 501.39538372 C124.1398549 501.39517903 120.47636262 501.4007051 116.81286621 501.40544128 C109.63968148 501.41373526 102.46650497 501.41649561 95.29331584 501.41705366 C89.45651251 501.41752965 83.61971187 501.41958855 77.78290939 501.42275429 C61.20942156 501.43155937 44.63594019 501.43617418 28.06245001 501.43542381 C27.16962959 501.43538386 26.27680917 501.4353439 25.35693359 501.43530273 C24.46301353 501.43526185 23.56909347 501.43522097 22.64808492 501.43517885 C8.18218975 501.43477298 -6.28367932 501.44432818 -20.74956696 501.4584411 C-35.62765226 501.4728407 -50.50572487 501.47970924 -65.38381732 501.47884732 C-73.72662688 501.47851647 -82.06940912 501.48121406 -90.41221237 501.49202538 C-97.52027293 501.50117791 -104.6282938 501.50326712 -111.73635773 501.49651595 C-115.3557973 501.49327384 -118.97516093 501.49310918 -122.59459305 501.5018692 C-172.93234245 501.6156896 -172.93234245 501.6156896 -186.4375 490.125 C-199.88513035 476.6550314 -207.27364466 461.1718236 -207.40123022 442.08900636 C-207.39453805 440.84355989 -207.38784589 439.59811342 -207.38095093 438.31492615 C-207.38441552 436.9470964 -207.38918542 435.57926946 -207.39513266 434.21144825 C-207.40756232 430.48579882 -207.40150935 426.76038232 -207.39217401 423.03473246 C-207.38535067 419.00400506 -207.39588089 414.97331606 -207.40411377 410.94259644 C-207.41741807 403.0597367 -207.41458825 395.1769629 -207.40587585 387.29409986 C-207.39908715 380.88524362 -207.3981877 374.47641138 -207.4014473 368.06755257 C-207.401907 367.15370983 -207.40236669 366.23986709 -207.40284032 365.29833214 C-207.40379955 363.44160659 -207.40477219 361.58488104 -207.4057581 359.7281555 C-207.41430219 342.33880113 -207.40449302 324.94949429 -207.388357 307.56014771 C-207.37495246 292.6531118 -207.37728494 277.74614598 -207.39111328 262.83911133 C-207.40718255 245.50834168 -207.41348067 228.17761363 -207.40427649 210.84683758 C-207.40332089 208.99743562 -207.40237777 207.14803365 -207.4014473 205.29863167 C-207.40098447 204.38879886 -207.40052164 203.47896604 -207.40004479 202.54156254 C-207.39745911 196.14306415 -207.40181673 189.74459224 -207.40888596 183.34609795 C-207.41731603 175.54475032 -207.41498908 167.7434932 -207.39904372 159.94215589 C-207.39118161 155.9650608 -207.38803411 151.9881164 -207.39799118 148.01102257 C-207.40698139 144.36487073 -207.40193477 140.71900818 -207.38605852 137.0728823 C-207.38116112 135.14100453 -207.39086832 133.20910642 -207.40123022 131.27725023 C-207.30482952 116.89084782 -203.11414502 102.79535518 -193.0390625 92.12109375 C-183.56885977 83.4310035 -172.6699307 76.05191411 -159.49462891 76.17163086 C-158.41645905 76.17750717 -157.33828918 76.18338348 -156.22744751 76.18943787 C-154.49450943 76.20201378 -154.49450943 76.20201378 -152.7265625 76.21484375 C-150.26822499 76.2111315 -147.80989 76.20520346 -145.3515625 76.19726562 C-141.48435984 76.18670084 -137.6190035 76.18755935 -133.75195312 76.22583008 C-130.0133048 76.25895553 -126.27770356 76.24136239 -122.5390625 76.21484375 C-121.38781891 76.23739731 -120.23657532 76.25995087 -119.05044556 76.28318787 C-112.99960124 76.2638714 -112.99960124 76.2638714 -107.80828857 73.51663208 C-105.95454418 71.44725597 -105.95454418 71.44725597 -104.48104858 69.27735901 C-98.00501254 60.4125249 -84.768357 57.10925604 -74.39453125 55.47265625 C-70.0256375 54.75474773 -66.10674582 53.95425358 -62 52.25 C-59.99621316 49.44003845 -59.47336882 47.17675116 -58.7890625 43.8046875 C-55.57981331 29.34717879 -45.88121401 16.8196968 -33.671875 8.78125 C-22.9307831 2.62553651 -12.29287721 -0.11347271 0 0 Z " fill="#047FD3" transform="translate(509,107.75)"/>
<path d="M0 0 C8.5330941 5.93831057 14.8853677 14.07241922 17.53125 24.19921875 C20.02161996 39.07917929 16.3858906 50.76245034 8 63 C5.85717844 65.60032179 3.62545027 68.06202311 1.3125 70.51171875 C-1.04394206 73.04728225 -3.21109326 75.67398069 -5.375 78.375 C-8.63761213 82.4119843 -12.02871931 86.26581089 -15.5625 90.0625 C-20.31499216 95.17609641 -24.7005269 100.50287808 -29 106 C-33.56745848 111.81312897 -38.21667995 117.31984101 -43.5 122.5 C-49.55355471 128.43551883 -54.76346111 134.88307186 -59.99609375 141.5390625 C-65.46748446 148.38605806 -71.36006511 154.74230435 -77.41625977 161.07470703 C-80.78955551 164.6082456 -83.95847809 168.17377841 -87 172 C-88.64330237 173.68970792 -90.31230928 175.35462601 -92 177 C-93.02963781 178.01592269 -94.0582326 179.03290327 -95.0859375 180.05078125 C-95.62057617 180.58026367 -96.15521484 181.10974609 -96.70605469 181.65527344 C-101.42690054 186.34297116 -106.03158027 191.04280036 -110.3359375 196.12109375 C-112.25656857 198.28969361 -114.30017991 200.29115466 -116.375 202.3125 C-120.43457104 206.31730448 -123.98151913 210.58802214 -127.54296875 215.03515625 C-130.78869781 218.95170372 -134.23114447 222.66060866 -137.70288086 226.3762207 C-140.32391482 229.18193456 -142.89421297 232.00566078 -145.375 234.9375 C-158.02089987 249.50038225 -171.90477557 264.7298282 -192 267 C-211.57218382 268.28379111 -221.64909087 260.87731963 -236.09155273 248.49169922 C-243.32958341 242.13480891 -250.04857299 235.20777836 -256.83154297 228.37426758 C-259.38580976 225.80161242 -261.94812071 223.23718178 -264.51171875 220.67382812 C-266.16193255 219.01870184 -267.81168842 217.36311883 -269.4609375 215.70703125 C-270.59237686 214.57392265 -270.59237686 214.57392265 -271.74667358 213.41792297 C-275.81297714 209.315503 -279.72302719 205.13005545 -283.484375 200.74563599 C-284.92138311 199.09054778 -286.39926409 197.49398845 -287.9140625 195.91015625 C-298.88573525 184.38515707 -303.41678871 174.96528155 -303.36865234 158.95068359 C-303.07648424 148.85306904 -298.94909038 141.19776558 -292 134 C-284.4885908 127.39995552 -273.40057307 122.97165295 -263.30078125 123.5625 C-243.6654996 127.29620381 -227.89640489 146.69938063 -215.5769043 161.26586914 C-214.0094416 162.98961702 -212.38039361 164.42190109 -210.5625 165.875 C-209.716875 166.57625 -208.87125 167.2775 -208 168 C-208 168.66 -208 169.32 -208 170 C-207.1028125 170.4021875 -207.1028125 170.4021875 -206.1875 170.8125 C-204.02775192 171.98493467 -202.64209744 173.19369282 -201 175 C-196.84602021 173.44104721 -194.53103329 170.40270036 -191.8125 167.0625 C-191.32982666 166.48129395 -190.84715332 165.90008789 -190.34985352 165.30126953 C-187.35116904 161.68191218 -184.39801014 158.02559346 -181.4375 154.375 C-177.61330649 149.67144649 -173.5731507 145.209102 -169.46875 140.75 C-167.05621896 138.06262366 -164.7674379 135.31034556 -162.5 132.5 C-158.66568261 127.74760662 -154.61353935 123.25091499 -150.4765625 118.76171875 C-148.01207995 116.01347086 -145.68557317 113.19079132 -143.375 110.3125 C-140.13770117 106.29711356 -136.73224574 102.67725381 -133.03125 99.09375 C-130.68840947 96.67882207 -128.60518728 94.12427456 -126.5 91.5 C-123.17416142 87.35698802 -119.69597143 83.58328718 -115.890625 79.8828125 C-113.42942069 77.43177845 -111.17868527 74.8309379 -108.9140625 72.19921875 C-106.64845431 69.59608118 -104.32696448 67.04841276 -102 64.5 C-98.54671847 60.71337002 -95.13900949 56.8952368 -91.77734375 53.02734375 C-89.70640513 50.66510827 -87.60487152 48.33204147 -85.5 46 C-80.28739106 40.21698772 -75.15481788 34.38411495 -70.15185547 28.41821289 C-51.90005314 6.69850455 -30.35788049 -17.44413774 0 0 Z " fill="#047ED3" transform="translate(742,315)"/>
<path d="M0 0 C10.17660379 7.85477203 19.27713424 17.89765648 24 30 C24.37125 30.94617188 24.7425 31.89234375 25.125 32.8671875 C31.00678227 50.22661435 29.51552197 70.31298138 21.4375 86.75 C11.36021216 103.57073609 -5.35878629 115.7657008 -24.1875 120.875 C-42.48024758 124.55558897 -61.00172792 121.74821827 -77 112 C-80.17408321 109.84082741 -83.1080532 107.52204663 -86 105 C-86.60328125 104.50242187 -87.2065625 104.00484375 -87.828125 103.4921875 C-98.60689327 93.83013846 -106.05842217 76.26127101 -107.1550293 61.98120117 C-108.16641123 42.18939519 -103.30824865 25.85600283 -89.8125 10.8125 C-66.4630616 -14.08819531 -28.27225655 -20.65691928 0 0 Z " fill="#047DD2" transform="translate(465,794)"/>
<path d="M0 0 C17.9146005 -0.53829929 34.50692342 5.52558969 48.125 17.15234375 C48.7128125 17.59835937 49.300625 18.044375 49.90625 18.50390625 C60.94244588 27.1682881 67.33192715 40.80481915 69.6875 54.3984375 C71.97893833 74.05979677 69.04143591 93.0359823 56.80078125 109.2265625 C44.94462031 122.86952321 28.09661933 132.47490976 9.95849609 134.37988281 C-8.14860951 135.64178498 -26.66468421 131.2810456 -40.71166992 119.29321289 C-54.77272771 106.58001718 -62.79330913 91.1626568 -64.16015625 72.1953125 C-64.81403814 53.12645302 -58.73367774 35.35106107 -45.875 21.15234375 C-45.28332031 20.46914063 -44.69164062 19.7859375 -44.08203125 19.08203125 C-32.84019184 6.88985078 -16.2724457 0.86226275 0 0 Z " fill="#047DD2" transform="translate(692.875,781.84765625)"/>
<path d="M0 0 C0.76699219 0.60714844 1.53398438 1.21429687 2.32421875 1.83984375 C14.09942578 11.66873557 20.55391833 25.43670483 23.6875 40.25 C25.52130551 62.25566618 20.37704998 80.32324763 6.12890625 97.21875 C-6.55356684 110.92953172 -24.31647882 115.16558517 -42.31219482 116.12301636 C-47.08504172 116.29390651 -51.85505251 116.32871522 -56.63061523 116.31567383 C-59.09206454 116.31246142 -61.5523654 116.33627975 -64.01367188 116.36132812 C-65.60416518 116.36359725 -67.19466166 116.36430642 -68.78515625 116.36328125 C-69.50816422 116.372491 -70.23117218 116.38170074 -70.97608948 116.39118958 C-76.11299665 116.34472297 -79.52214559 115.33883417 -84 113 C-87.51823654 109.20400794 -89.12588921 106.75715046 -89.12266541 101.63056946 C-89.12429688 100.7123793 -89.12592834 99.79418915 -89.12760925 98.84817505 C-89.12408951 97.83778168 -89.12056976 96.82738831 -89.11694336 95.78637695 C-89.11697357 94.72443619 -89.11700378 93.66249542 -89.11703491 92.56837463 C-89.11463553 89.04162828 -89.10347748 85.51500143 -89.08984375 81.98828125 C-89.08538301 80.7852706 -89.08092228 79.58225994 -89.07632637 78.34279442 C-89.05062277 71.97400013 -89.0167378 65.60529828 -88.9777832 59.23657227 C-88.9472021 53.96271383 -88.93350746 48.68922852 -88.93481445 43.4152832 C-88.93633727 37.05196995 -88.90879916 30.68940769 -88.86038399 24.32628441 C-88.84673806 21.90106939 -88.84325245 19.47577501 -88.85014153 17.05053139 C-88.85758796 13.6530556 -88.82764189 10.2578148 -88.78881836 6.8605957 C-88.79946823 5.86032349 -88.8101181 4.86005127 -88.8210907 3.82946777 C-88.70680738 -2.05462952 -87.7711716 -5.35496434 -83.6753931 -9.65525532 C-65.65674632 -24.11781899 -16.47837707 -13.48821792 0 0 Z " fill="#047DD2" transform="translate(594,798)"/>
<path d="M0 0 C1.36787646 1.36142421 2.65027965 2.80813876 3.90625 4.2734375 C6.76177763 2.9754704 8.78733294 1.57469877 11.03125 -0.6015625 C18.15195512 -6.90539019 27.37841694 -9.05644944 36.6484375 -8.93359375 C46.15083977 -8.32972406 53.87064767 -5.18529068 60.90625 1.2734375 C67.96305975 9.42006038 72.13441327 15.9960978 72.53125 26.9609375 C72.56629639 27.86779297 72.60134277 28.77464844 72.63745117 29.70898438 C72.75286459 33.23007181 72.83498503 36.75124508 72.90625 40.2734375 C72.93135651 41.47592133 72.93135651 41.47592133 72.95697021 42.70269775 C73.06830155 48.27095354 73.1450287 53.83869165 73.19134521 59.40786743 C73.20956519 61.3130318 73.23430982 63.21814531 73.26568604 65.12313843 C73.30777457 67.84015764 73.32312838 70.55613146 73.33203125 73.2734375 C73.34948898 74.0914534 73.36694672 74.9094693 73.38493347 75.75227356 C73.36506433 81.07410604 72.39836976 84.02845003 68.90625 88.2734375 C64.29914638 92.44862515 59.39412005 92.6354643 53.37890625 92.546875 C49.60132998 92.12913355 47.63858509 90.87248795 44.90625 88.2734375 C41.575654 82.24842117 41.47969658 76.94373599 41.5 70.15234375 C41.48916382 69.09361557 41.47832764 68.03488739 41.46716309 66.94407654 C41.43302408 63.57463425 41.41733498 60.20552966 41.40625 56.8359375 C41.39163214 52.39941738 41.35786496 47.96364441 41.3125 43.52734375 C41.31552124 42.51877823 41.31854248 41.51021271 41.32165527 40.47108459 C41.25737898 34.382218 40.53689373 29.79708554 37.90625 24.2734375 C33.728484 20.4843009 29.4844715 19.00369758 23.90625 19.2734375 C18.69651255 20.83635874 15.87205572 22.71065947 12.90625 27.2734375 C11.8985803 30.2964466 11.78183995 32.31565174 11.78027344 35.47583008 C11.77646667 36.53735794 11.77265991 37.5988858 11.76873779 38.69258118 C11.76771057 39.83945908 11.76668335 40.98633698 11.765625 42.16796875 C11.74729856 44.59180628 11.7277284 47.01563468 11.70703125 49.43945312 C11.67804758 53.26456125 11.6562496 57.08908151 11.65576172 60.91430664 C11.65242842 64.60355924 11.61788353 68.29145208 11.578125 71.98046875 C11.5851947 73.12127396 11.5922644 74.26207916 11.59954834 75.43745422 C11.46378892 84.29475675 11.46378892 84.29475675 8.48974609 87.95703125 C3.78635154 92.17417428 0.57825232 92.67982874 -5.625 92.515625 C-9.12784363 92.17199161 -11.25607966 91.36790846 -14.09375 89.2734375 C-18.38840071 83.34725263 -18.66950672 78.5617328 -18.6328125 71.37109375 C-18.64460541 70.33456161 -18.65639832 69.29802948 -18.66854858 68.23008728 C-18.70370535 64.93188349 -18.71296549 61.63431303 -18.71875 58.3359375 C-18.73514711 55.04132363 -18.75731351 51.74698929 -18.79037476 48.45249939 C-18.80984396 46.40794553 -18.81935729 44.36326429 -18.81729126 42.31861877 C-18.86773764 35.52036662 -19.26271263 29.39298264 -22.78125 23.3984375 C-26.21153646 20.24628237 -29.49936031 19.3128959 -34.1484375 19.2421875 C-38.95386166 19.60486102 -41.8441787 20.74533152 -45.09375 24.2734375 C-48.50464155 30.45335283 -48.51977163 35.97610659 -48.5 42.9375 C-48.51083618 44.04773529 -48.52167236 45.15797058 -48.53283691 46.30184937 C-48.5785723 51.03159492 -48.59019543 55.76128381 -48.60498047 60.49121094 C-48.62066685 63.95267272 -48.65365826 67.41367585 -48.6875 70.875 C-48.68447876 71.94279694 -48.68145752 73.01059387 -48.67834473 74.11074829 C-48.7718044 83.33635371 -48.7718044 83.33635371 -52.09375 87.2734375 C-56.30741543 91.16297482 -58.8753706 92.1091131 -64.46875 92.5234375 C-70.040845 92.13915509 -72.94103473 90.40053687 -76.90625 86.5234375 C-80.55924897 81.09612474 -80.22162146 75.17402594 -80.27075195 68.78100586 C-80.27732315 68.06785721 -80.28389435 67.35470856 -80.29066467 66.61994934 C-80.31021066 64.28439194 -80.32201272 61.94889798 -80.33203125 59.61328125 C-80.33610678 58.81078005 -80.3401823 58.00827885 -80.34438133 57.18145943 C-80.3651537 52.94055573 -80.3794981 48.69968362 -80.38891602 44.45874023 C-80.4000139 40.08851448 -80.4344774 35.71879314 -80.47408772 31.3487463 C-80.50024799 27.97635463 -80.50860687 24.60408402 -80.51219749 21.23159981 C-80.51705821 19.62048464 -80.52865759 18.00937469 -80.54723549 16.3983593 C-80.57163521 14.1439888 -80.57066222 11.89093725 -80.5637207 9.63647461 C-80.56958694 8.35630966 -80.57545319 7.07614471 -80.58149719 5.75718689 C-79.90089861 0.89599052 -77.70525108 -2.11506142 -74.28125 -5.5390625 C-69.68467994 -8.03434339 -65.47780688 -8.07562347 -60.53125 -6.7265625 C-55.66665447 -4.9523179 -53.00697399 -1.89647135 -50.09375 2.2734375 C-49.64386719 1.81453125 -49.19398438 1.355625 -48.73046875 0.8828125 C-34.64193612 -12.55634888 -14.92361879 -12.30641699 0 0 Z " fill="#057ED3" transform="translate(425.09375,665.7265625)"/>
<path d="M0 0 C0.99 0.99 0.99 0.99 2 2 C2.36351562 1.52949219 2.72703125 1.05898438 3.1015625 0.57421875 C7.23302153 -4.54243435 10.61301653 -7.56094659 17.375 -8.4375 C21.79197796 -7.90441645 25.43271199 -6.70648591 29 -4 C32.11941363 0.13545362 32.45709918 3.78096096 32.47998047 8.80029297 C32.494991 9.5700647 32.51000153 10.33983643 32.52546692 11.13293457 C32.57082854 13.66936443 32.59474618 16.20545884 32.6171875 18.7421875 C32.64167004 20.51190346 32.66700221 22.28160785 32.69314575 24.05130005 C32.7444866 27.75827747 32.78514293 31.46518052 32.81835938 35.17236328 C32.86173959 39.91269344 32.93214037 44.65216459 33.01067924 49.3920269 C33.06813144 53.04657953 33.1108701 56.70119325 33.14926529 60.35599136 C33.16942689 62.10306807 33.19417977 63.85009828 33.22369003 65.59704208 C33.262888 68.04511603 33.28214965 70.49258802 33.29638672 72.94091797 C33.31181015 73.6559549 33.32723358 74.37099182 33.34312439 75.10769653 C33.34278282 80.19927933 32.289528 83.55187257 30 88 C25.99064139 91.88002446 21.66017721 92.4197027 16.1640625 92.34765625 C12.21304117 91.71292539 8.88169682 89.73964135 6 87 C4.7734375 84.32421875 4.7734375 84.32421875 4 82 C3.34515625 82.45890625 2.6903125 82.9178125 2.015625 83.390625 C-10.49370563 91.80085293 -22.00495843 94.83954376 -37.08203125 92.52734375 C-45.97806725 90.44952835 -52.89858479 85.72720138 -59 79 C-59.62777344 78.39929688 -60.25554688 77.79859375 -60.90234375 77.1796875 C-67.06359886 70.96106502 -69.58443613 64.32488321 -72 56 C-72.20238281 55.35417969 -72.40476562 54.70835937 -72.61328125 54.04296875 C-75.21698526 40.28804758 -72.72161682 23.6883327 -65 12 C-48.17475667 -10.08937887 -23.30374832 -16.54424323 0 0 Z " fill="#047DD2" transform="translate(582,666)"/>
<path d="M0 0 C4.08313851 3.927095 6.80241512 7.11982045 7.203125 12.9609375 C7.22632813 14.65089844 7.22632813 14.65089844 7.25 16.375 C7.27578125 17.49648438 7.3015625 18.61796875 7.328125 19.7734375 C6.86601384 24.31753057 5.30313925 26.92025605 1.8125 29.8125 C-2.08327444 31.45738254 -4.9372018 32.15339407 -9 31 C-12.48453112 28.9016971 -15.70894889 26.61397457 -18.94921875 24.1640625 C-25.45341383 19.55033129 -31.19883646 19.33314342 -39 20 C-43.00075425 21.28595672 -44.615241 22.59600305 -47.5 25.625 C-49.24003696 29.54008316 -49.44911004 31.64523034 -48.19238281 35.70532227 C-45.10764309 41.64174091 -37.07684244 44.1410098 -31.046875 46.08984375 C-28.95071835 46.71519825 -26.85165216 47.33087068 -24.75 47.9375 C-10.08756784 52.39698201 4.65553273 57.18846797 13 71 C17.44128534 80.54544908 17.66307226 92.6791157 14.15625 102.56640625 C8.22529791 115.04945745 -1.69893875 122.36143437 -14.00390625 127.9921875 C-29.61782027 133.24432546 -50.8910182 134.05702825 -66 127 C-66.83144531 126.63777344 -67.66289062 126.27554688 -68.51953125 125.90234375 C-75.11299445 122.67668597 -79.72543474 117.85687152 -83.4375 111.5625 C-84.53504373 106.56257857 -84.78540884 101.90151613 -82.8125 97.125 C-80.21947387 94.0849004 -78.09091243 92.30594281 -74.03613281 91.71264648 C-67.62425165 91.44678454 -64.02022847 93.20561309 -58.875 96.875 C-50.8099937 102.46569369 -43.62180472 105.13624894 -33.66796875 103.65234375 C-29.27471441 102.78534994 -25.62943396 101.74957118 -22 99 C-19.63886279 95.45829418 -19.21882708 93.23065693 -19 89 C-20.88031248 83.73512506 -25.24242773 81.45258437 -30 79 C-34.31518769 77.34516203 -38.71078341 75.98956073 -43.125 74.625 C-73.53286318 64.82219678 -73.53286318 64.82219678 -80.375 51.8125 C-84.57810616 42.83978207 -84.75065211 30.42666003 -82.01171875 20.98828125 C-77.09496095 8.39861127 -68.56985813 0.91677325 -56.49609375 -4.59375 C-38.98683655 -11.63657971 -15.7112522 -11.97203978 0 0 Z " fill="#057DD2" transform="translate(316,628)"/>
<path d="M0 0 C0.70422773 -0.00453111 1.40845546 -0.00906223 2.13402343 -0.01373065 C4.49377357 -0.02639073 6.85329338 -0.02475325 9.21307373 -0.02310181 C10.90509844 -0.02908616 12.59712042 -0.03589149 14.28913879 -0.04345703 C18.88641448 -0.0611362 23.48361573 -0.06581329 28.08092213 -0.0670886 C30.9541406 -0.06850996 33.82734013 -0.07277931 36.70055389 -0.07808304 C46.7273631 -0.09659139 56.7541191 -0.10475286 66.78094482 -0.10317993 C76.12176995 -0.1019791 85.46236378 -0.12306784 94.80313039 -0.15466726 C102.82621065 -0.18083999 110.84921544 -0.19154677 118.87233806 -0.19026911 C123.66250532 -0.18975967 128.45246718 -0.19543296 133.24259186 -0.21662521 C137.75049953 -0.23602376 142.25800626 -0.23612106 146.76592827 -0.22159195 C148.4170611 -0.21950458 150.06821913 -0.22420049 151.71930885 -0.23631287 C169.22913466 -0.356406 169.22913466 -0.356406 175.84490967 6.04867554 C176.20713623 6.61586304 176.56936279 7.18305054 176.94256592 7.76742554 C177.51297607 8.61820679 177.51297607 8.61820679 178.09490967 9.48617554 C180.8137504 14.80716856 180.69651996 20.70220796 178.94256592 26.32992554 C176.79770172 31.56502062 172.84829268 34.88221235 167.8286047 37.32779217 C164.39363716 38.47090029 161.53598147 38.52220256 157.91438293 38.52812195 C157.2119732 38.5319475 156.50956346 38.53577304 155.78586859 38.53971452 C153.43836612 38.55001175 151.09110975 38.54605867 148.74359131 38.54208374 C147.05802688 38.54643202 145.37246442 38.55161556 143.68690491 38.55757141 C139.11254156 38.57095985 134.53826085 38.57154027 129.96388173 38.56900811 C126.14424011 38.56793835 122.32461521 38.57282189 118.50497717 38.57761353 C109.49368218 38.58870808 100.48242888 38.58914635 91.47113037 38.58309937 C82.17629316 38.57705802 72.88160726 38.5893748 63.58679587 38.61066943 C55.60449193 38.62828432 47.62223616 38.63428699 39.6399135 38.63103169 C34.87334004 38.62921859 30.10687453 38.63185777 25.34031868 38.64574623 C20.85789705 38.65831819 16.37571137 38.65638647 11.89329338 38.64333534 C10.24938757 38.64096867 8.60546518 38.6437075 6.96157837 38.65195847 C4.71502279 38.66242023 2.4692598 38.65433057 0.22273254 38.64164734 C-1.03362975 38.64181508 -2.28999205 38.64198282 -3.58442593 38.64215565 C-8.90573703 38.05747577 -12.8474281 36.01796852 -16.24493408 31.89242554 C-19.9463441 27.25112869 -21.49112611 23.46941132 -21.30743408 17.38461304 C-20.52920864 12.11213568 -17.99841483 7.857367 -13.99493408 4.39242554 C-9.01434638 0.86450925 -6.19492288 0.01645694 0 0 Z " fill="#047FD4" transform="translate(397.99493408203125,296.7325744628906)"/>
<path d="M0 0 C0.75797379 -0.00335861 1.51594757 -0.00671722 2.29689026 -0.01017761 C4.81236394 -0.0197049 7.3277711 -0.02163206 9.84326172 -0.02270508 C11.59243802 -0.02591803 13.34161406 -0.02928213 15.09078979 -0.03279114 C18.76447166 -0.03878797 22.43812999 -0.04063063 26.11181641 -0.04003906 C30.80579363 -0.03993777 35.49961844 -0.05355283 40.19355965 -0.07081127 C43.81052331 -0.08196774 47.42745067 -0.0839571 51.04442978 -0.08342934 C52.77387896 -0.08460539 54.5033292 -0.08900602 56.23276138 -0.0967617 C58.66179059 -0.10662886 61.09049612 -0.10365654 63.51953125 -0.09765625 C64.2263353 -0.10327576 64.93313934 -0.10889526 65.66136169 -0.11468506 C71.72072686 -0.07691011 77.28596598 0.70753475 82.52294922 3.89526367 C86.12855276 7.71296154 86.75474786 11.54558405 86.96044922 16.64526367 C86.82603655 20.86157699 86.18402518 23.65815923 83.64794922 27.14526367 C77.21438838 33.05657828 70.4765771 32.75290133 62.14794922 32.45776367 C59.91817606 32.40026375 57.68835403 32.34463962 55.45849609 32.29052734 C52.55322266 32.21789551 52.55322266 32.21789551 49.64794922 32.14526367 C49.67693298 32.73435516 49.70591675 33.32344666 49.73577881 33.9303894 C50.55187702 50.99809854 50.86499032 68.05127803 50.88818359 85.13598633 C50.89377558 88.62890651 50.91812715 92.12145767 50.94615555 95.61425972 C50.96924401 99.00219129 50.97121843 102.39007011 50.97607422 105.77807617 C50.98842102 107.01969513 51.00076782 108.26131409 51.01348877 109.54055786 C50.99392853 117.10150783 50.43374708 122.18085903 46.02294922 128.45776367 C41.95224204 131.35010825 37.43994808 132.38457786 32.46044922 131.95776367 C27.23892145 130.85016687 23.37496862 128.73579278 20.39794922 124.27026367 C18.50031312 118.89362805 18.50789166 113.39047875 18.53442383 107.75317383 C18.5342778 106.93299774 18.53413177 106.11282166 18.53398132 105.26779175 C18.5346746 102.57327575 18.5424395 99.87883001 18.55029297 97.18432617 C18.55215923 95.30960121 18.55358215 93.43487577 18.55458069 91.56015015 C18.55838949 86.63810874 18.56820576 81.71609708 18.57928467 76.79406738 C18.58953402 71.76660565 18.59408585 66.7391391 18.59912109 61.71166992 C18.60982954 51.85618814 18.62688625 42.00072838 18.64794922 32.14526367 C17.86145996 32.16097412 17.0749707 32.17668457 16.26464844 32.19287109 C12.68415584 32.25542282 9.10377846 32.29431919 5.52294922 32.33276367 C4.28544922 32.35790039 3.04794922 32.38303711 1.77294922 32.40893555 C0.57412109 32.41860352 -0.62470703 32.42827148 -1.85986328 32.43823242 C-2.95959473 32.45394287 -4.05932617 32.46965332 -5.19238281 32.48583984 C-10.05150846 31.96208152 -13.29529283 30.20202163 -16.72705078 26.77026367 C-19.19109924 21.27354019 -19.09860234 16.07243057 -18.35205078 10.14526367 C-14.56932443 2.01940706 -8.36128191 -0.00527049 0 0 Z " fill="#047DD2" transform="translate(268.35205078125,783.854736328125)"/>
<path d="M0 0 C3.82041362 1.68098199 6.16344566 3.72557486 8.125 7.375 C8.7105368 10.69613616 8.60190341 13.89111191 8.4375 17.25 C8.41494141 18.12914062 8.39238281 19.00828125 8.36914062 19.9140625 C8.31059748 22.06845007 8.22092783 24.2219531 8.125 26.375 C9.35476563 26.34019531 10.58453125 26.30539062 11.8515625 26.26953125 C13.48436127 26.24137955 15.1171749 26.21408087 16.75 26.1875 C17.55824219 26.16236328 18.36648438 26.13722656 19.19921875 26.11132812 C24.28732178 26.04927809 27.70927208 26.55630505 32.125 29.375 C35.71830843 33.34002999 36.43370041 36.98832756 36.3359375 42.31640625 C35.86842679 46.8789645 34.0355784 49.58962613 30.625 52.53125 C25.99478672 54.97038021 22.38592613 54.82610554 17.25 54.625 C16.37085938 54.60695313 15.49171875 54.58890625 14.5859375 54.5703125 C12.4318168 54.52348379 10.27826226 54.45174994 8.125 54.375 C8.05088629 59.87423749 7.99641536 65.37318479 7.96020508 70.87280273 C7.94511127 72.74394799 7.92463411 74.61505783 7.89868164 76.48608398 C7.86232407 79.17440526 7.84527985 81.86225913 7.83203125 84.55078125 C7.81654739 85.38837479 7.80106354 86.22596832 7.78511047 87.08894348 C7.64699322 91.36704192 7.64699322 91.36704192 9.45487976 95.07707214 C13.29671041 98.06273683 18.55014651 97.38269536 23.1875 97.25 C27.58168253 97.21660956 30.44698922 97.77348018 34.125 100.375 C37.3279418 104.00500071 37.64770139 107.48495293 37.4765625 112.16015625 C36.76090491 116.66879904 34.38403738 119.3957487 30.875 122.125 C20.81162374 126.69926194 7.90971225 127.29861907 -2.53515625 123.52734375 C-10.81875464 119.44777526 -15.71935649 114.03590478 -19.71875 105.79296875 C-23.45455988 94.74961185 -23.11680254 83.69475403 -23 72.1875 C-22.98994761 70.45508331 -22.98082576 68.72266096 -22.97265625 66.99023438 C-22.95082749 62.78501414 -22.91642299 58.580071 -22.875 54.375 C-23.54466797 54.32891602 -24.21433594 54.28283203 -24.90429688 54.23535156 C-31.42596981 53.70253515 -35.87427234 52.78814216 -40.875 48.375 C-43.40112084 44.48056371 -43.59550756 39.91152905 -42.875 35.375 C-40.65213731 31.01160288 -38.48539944 28.14068489 -33.875 26.375 C-30.19361966 26.14101396 -26.55795229 26.20084989 -22.875 26.375 C-22.90980469 25.13363281 -22.94460938 23.89226563 -22.98046875 22.61328125 C-23.00861584 20.97136774 -23.03591501 19.32943954 -23.0625 17.6875 C-23.08763672 16.87087891 -23.11277344 16.05425781 -23.13867188 15.21289062 C-23.21423848 8.99123977 -21.9885138 5.81875033 -17.875 1.0625 C-12.27552583 -2.08720422 -6.15327857 -0.99246429 0 0 Z " fill="#067ED3" transform="translate(746.875,633.625)"/>
<path d="M0 0 C1.78639137 -0.00810448 1.78639137 -0.00810448 3.60887146 -0.01637268 C6.86318341 -0.02671418 10.11683114 -0.01918395 13.37109947 -0.00266147 C16.78357696 0.01122998 20.19602491 0.00472431 23.60852051 0.00120544 C29.33822137 -0.00149346 35.06771237 0.0119512 40.79736328 0.03515625 C47.4128359 0.06176415 54.02795773 0.06351199 60.64346552 0.05176789 C67.01869837 0.04097234 73.39380487 0.04719105 79.76902771 0.06132317 C82.47703555 0.06706762 85.18495045 0.06701248 87.89295959 0.06225777 C91.67755271 0.05934727 95.46157301 0.07584626 99.24609375 0.09765625 C100.92480812 0.09090378 100.92480812 0.09090378 102.63743591 0.08401489 C108.19397445 0.13721404 112.37015658 0.27720301 117.12304688 3.50170898 C121.68559025 8.44446431 123.6323045 12.44839866 123.42382812 19.13061523 C122.77161431 24.27209293 120.96849969 27.96938354 116.95898438 31.29858398 C112.13502136 34.59836324 108.3411991 36.61395137 102.41903687 36.66233826 C100.96829773 36.67740669 100.96829773 36.67740669 99.48825073 36.69277954 C98.4284903 36.69861053 97.36872986 36.70444153 96.27685547 36.71044922 C94.60076202 36.72512489 94.60076202 36.72512489 92.89080811 36.74009705 C89.184379 36.77006672 85.47798607 36.7914424 81.77148438 36.81030273 C80.50569172 36.81687456 79.23989906 36.82344639 77.93574905 36.83021736 C72.61364038 36.85610829 67.29154608 36.87959574 61.96939659 36.8947134 C54.35763629 36.91659193 46.74658385 36.95850445 39.13510644 37.02815098 C33.12779154 37.08123963 27.1208008 37.10121207 21.11323929 37.10991096 C18.56398659 37.11846549 16.01474649 37.1372832 13.46564865 37.16665459 C9.89174377 37.20561258 6.31967271 37.20659675 2.74560547 37.19873047 C1.69799042 37.21873108 0.65037537 37.23873169 -0.4289856 37.25933838 C-7.72039371 37.1875182 -12.38784363 35.3485544 -17.87695312 30.50170898 C-22.1007572 25.74179837 -23.31483416 20.96473835 -23.22070312 14.65795898 C-22.39692271 9.49060908 -19.34024703 5.79294017 -15.51428223 2.41685486 C-10.7917986 -0.64062863 -5.4361148 -0.04696111 0 0 Z " fill="#047ED4" transform="translate(398.876953125,373.498291015625)"/>
<path d="M0 0 C7.53667813 5.43405416 11.51254786 14.40656784 13.125 23.375 C14.26230538 33.83540135 12.09484676 42.62449218 5.9375 51.1875 C-0.52173678 58.88624917 -8.93995935 63.66032024 -18.9453125 64.69140625 C-29.22899841 65.06823162 -38.08524911 62.65405339 -46.09765625 56.05078125 C-54.15099529 48.45763301 -57.95148462 38.7691024 -58.3125 27.6875 C-57.82453184 16.84201402 -53.67264301 8.28168035 -46.125 0.5625 C-31.57126028 -9.23328635 -14.96636627 -8.82439016 0 0 Z " fill="#F7F6F6" transform="translate(447.875,820.625)"/>
<path d="M0 0 C7.32231034 4.62904676 11.83233128 11.72169122 14.640625 19.85546875 C16.47606874 30.80827976 15.58807466 41.13963243 9.3515625 50.46484375 C2.8998054 59.15640298 -3.90225966 62.63408655 -14 66 C-25.06900649 67.04198981 -34.54181203 64.70949552 -43.21875 57.6328125 C-50.22373101 51.21157991 -54.20507373 44.69810049 -55 35 C-55.11408203 33.6696875 -55.11408203 33.6696875 -55.23046875 32.3125 C-55.71985466 22.15443577 -52.40154422 12.95343372 -46 5 C-33.80160732 -7.82395128 -14.83876917 -7.82769971 0 0 Z " fill="#F7F6F6" transform="translate(716,819)"/>
<path d="M0 0 C3.90100029 1.98553907 6.45851481 4.91714732 8 9 C8.30078125 12.53125 8.30078125 12.53125 8.3125 16.5 C8.32925781 17.8096875 8.34601563 19.119375 8.36328125 20.46875 C8 24 8 24 7.0546875 26.37890625 C3.18904758 29.42879326 -1.92148851 29.20930681 -6.68945312 29.68945312 C-13.45548091 30.52654246 -18.88635017 32.3604562 -23.43508911 37.67747498 C-27.15160446 43.19341134 -27.6869992 47.56839846 -27.56640625 54.125 C-27.57485817 55.54449951 -27.57485817 55.54449951 -27.58348083 56.99267578 C-27.59984095 59.99563056 -27.58446656 62.99709816 -27.5625 66 C-27.54584481 69.00276195 -27.53689317 72.00454613 -27.55223083 75.00732422 C-27.56143011 76.8683303 -27.55261939 78.72954537 -27.52259827 80.59033203 C-27.54754888 86.545353 -28.61986712 91.03005 -32 96 C-36.87816898 100.64020952 -40.96508445 101.3629763 -47.4921875 101.27734375 C-51.246747 100.86211988 -53.25499237 99.54415341 -56 97 C-58.89132286 92.32320909 -59.43306778 88.34327776 -59.38818359 82.96264648 C-59.39344055 82.17976257 -59.39869751 81.39687866 -59.40411377 80.590271 C-59.41725707 78.0170056 -59.40859691 75.44436482 -59.3984375 72.87109375 C-59.40045967 71.0756061 -59.4033723 69.28011925 -59.40713501 67.4846344 C-59.4115505 63.72803908 -59.40515156 59.97165823 -59.39111328 56.21508789 C-59.37400947 51.40423511 -59.38387499 46.59388403 -59.40183067 41.78304958 C-59.41267895 38.07782725 -59.40921759 34.37272358 -59.4014473 30.66749763 C-59.39944882 28.8937073 -59.40189219 27.11990613 -59.40888596 25.34612846 C-59.41651905 22.8664488 -59.40487125 20.38757849 -59.38818359 17.90795898 C-59.39425629 17.17795181 -59.40032898 16.44794464 -59.40658569 15.69581604 C-59.35169592 11.28522636 -58.71462275 8.50132121 -56 5 C-51.16187923 1.34672513 -47.41989775 0.34675336 -41.36328125 0.61328125 C-36.57957304 1.39606987 -33.89658776 4.07981782 -30.625 7.4375 C-28.82647163 10.27364089 -28.62402258 11.71019762 -29 15 C-28.34 15 -27.68 15 -27 15 C-26.7525 14.443125 -26.505 13.88625 -26.25 13.3125 C-20.94535313 3.49890329 -11.22957001 -2.37989317 0 0 Z " fill="#077FD4" transform="translate(690,657)"/>
<path d="M0 0 C11.32756964 0.01559811 20.78586743 1.65387045 29.625 9.25 C36.99108166 16.74761883 39.98667114 25.92812784 40.125 36.3125 C40.05170326 42.96066996 38.84668046 48.42189056 35.625 54.25 C35.0475 55.301875 34.47 56.35375 33.875 57.4375 C27.81259799 65.01550251 21.2728452 69.63099053 11.625 71.25 C10.00538502 71.32649781 8.38310555 71.35811681 6.76171875 71.34765625 C5.43237305 71.34282227 5.43237305 71.34282227 4.07617188 71.33789062 C3.16416016 71.32951172 2.25214844 71.32113281 1.3125 71.3125 C0.38115234 71.30798828 -0.55019531 71.30347656 -1.50976562 71.29882812 C-3.79824718 71.28709232 -6.08657833 71.26979879 -8.375 71.25 C-9.30590983 62.9185229 -9.52159408 54.68327029 -9.5078125 46.3046875 C-9.50876923 45.01305695 -9.50972595 43.72142639 -9.51071167 42.39065552 C-9.51217251 39.68295063 -9.51008315 36.97527909 -9.50537109 34.26757812 C-9.49961724 30.79173636 -9.50299822 27.31597087 -9.50894356 23.84013176 C-9.51340751 20.51581073 -9.51029324 17.1915107 -9.5078125 13.8671875 C-9.50983673 12.61630341 -9.51186096 11.36541931 -9.51394653 10.07662964 C-9.51079437 8.93098541 -9.50764221 7.78534119 -9.50439453 6.60498047 C-9.50359894 5.59225067 -9.50280334 4.57952087 -9.50198364 3.53610229 C-9.21577099 -1.61661966 -4.03766223 0.01370749 0 0 Z " fill="#F6F6F6" transform="translate(546.375,813.75)"/>
<path d="M0 0 C5.3621384 4.14974314 8.69568529 9.92353812 10 16.5625 C10.7135431 23.73909692 9.84134548 30.56093845 5.59375 36.54296875 C1.27995225 41.31459881 -3.73678553 44.11640614 -10 45.5625 C-16.24618566 45.87380507 -21.87584689 44.38036359 -26.59375 40.125 C-31.71826858 34.69903915 -33.67487218 28.97634213 -34.375 21.625 C-34.01161308 13.709485 -31.59181572 7.15431572 -26 1.5625 C-19.24974418 -4.369543 -7.53815838 -4.5862409 0 0 Z " fill="#F6F6F6" transform="translate(574,687.4375)"/>
<path d="M0 0 C7.30988069 4.19641299 11.7402427 9.68292295 14.25 17.75 C14.51653138 24.54655023 12.02448897 29.56259621 7.75 34.75 C2.2246962 40.5379325 -4.29413221 43.53411764 -12.296875 44.09375 C-18.62121334 43.66929776 -23.95732519 41.13319644 -28.1875 36.4375 C-32.29173891 31.32173478 -32.29199639 25.25490863 -31.625 18.9375 C-29.18683345 10.72704759 -22.37194301 4.81029217 -15.625 -0.0625 C-10.30463037 -1.83595654 -5.35450403 -1.5694236 0 0 Z " fill="#F7F6F6" transform="translate(517.625,149.0625)"/>
<path d="M0 0 C3.0708629 2.28196881 3.89935684 3.39244094 4.53125 7.20703125 C4.42471065 19.49900838 4.42471065 19.49900838 0 25 C-6.43307344 31.10317224 -12.81653911 31.53823783 -21.3828125 31.31640625 C-27.16038816 30.81102436 -29.95032985 29.18190693 -33.9375 24.9375 C-35.80428798 19.7763803 -36.06182235 14.11125366 -34.2734375 8.87109375 C-31.07027685 2.84238082 -26.38543504 -0.32191743 -20.09765625 -2.4609375 C-13.29066283 -4.21022073 -6.32309238 -2.88195367 0 0 Z " fill="#0481D6" transform="translate(413,454)"/>
<path d="M0 0 C0.33 0 0.66 0 1 0 C1 91.41 1 182.82 1 277 C0.67 277 0.34 277 0 277 C0 211.33 0 145.66 0 78 C-0.66 77.67 -1.32 77.34 -2 77 C-2 57.53 -2 38.06 -2 18 C-1.67 18 -1.34 18 -1 18 C-0.505 9.09 -0.505 9.09 0 0 Z " fill="#41A2E0" transform="translate(341,267)"/>
<path d="M0 0 C1.81725255 3.11627055 2.2455605 5.36126392 2.22705078 8.95214844 C2.22689972 9.93286316 2.22674866 10.91357788 2.22659302 11.92401123 C2.21627045 12.97518127 2.20594788 14.02635132 2.1953125 15.109375 C2.1924826 16.19132141 2.18965271 17.27326782 2.18673706 18.38800049 C2.17554609 21.84211304 2.1504432 25.29596588 2.125 28.75 C2.11496881 31.09244417 2.1058432 33.43489241 2.09765625 35.77734375 C2.0756103 41.51831771 2.04214334 47.2591403 2 53 C-0.64015192 49.03977212 -1.12465155 46.12576786 -1.12939453 41.4309082 C-1.13254669 40.53350418 -1.13569885 39.63610016 -1.13894653 38.71150208 C-1.1369223 37.7509642 -1.13489807 36.79042633 -1.1328125 35.80078125 C-1.13376923 34.80999069 -1.13472595 33.81920013 -1.13571167 32.79838562 C-1.13639139 30.7079563 -1.13455162 28.61752486 -1.13037109 26.52709961 C-1.12500291 23.31424271 -1.13033186 20.10152453 -1.13671875 16.88867188 C-1.13605827 14.85937469 -1.13477772 12.83007759 -1.1328125 10.80078125 C-1.13483673 9.83417068 -1.13686096 8.86756012 -1.13894653 7.87165833 C-1.13579437 6.98371078 -1.13264221 6.09576324 -1.12939453 5.1809082 C-1.12859894 4.39577347 -1.12780334 3.61063873 -1.12698364 2.80171204 C-1 1 -1 1 0 0 Z " fill="#ECF1F4" transform="translate(405,696)"/>
<path d="M0 0 C0.33 -0.66 0.66 -1.32 1 -2 C1 -1.34 1 -0.68 1 0 C1.66 0 2.32 0 3 0 C3.33 -0.66 3.66 -1.32 4 -2 C4 -1.34 4 -0.68 4 0 C6.31 0 8.62 0 11 0 C11 0.33 11 0.66 11 1 C-18.37 1 -47.74 1 -78 1 C-78 0.67 -78 0.34 -78 0 C-76.91244415 -0.0154612 -76.91244415 -0.0154612 -75.80291748 -0.03123474 C-68.91943374 -0.12982894 -62.03601953 -0.23242232 -55.15266037 -0.33933926 C-51.6151475 -0.39414973 -48.07762602 -0.44749508 -44.54003906 -0.49731445 C-40.45890711 -0.5548563 -36.37790291 -0.61909016 -32.296875 -0.68359375 C-31.04638367 -0.70030624 -29.79589233 -0.71701874 -28.50750732 -0.73423767 C-21.79012917 -0.84585582 -15.17037876 -1.16811199 -8.48858643 -1.88392639 C-5.31670077 -2.03187071 -2.85963117 -1.35038139 0 0 Z " fill="#0D8CDD" transform="translate(538,608)"/>
<path d="M0 0 C1.62215675 0.02997826 1.62215675 0.02997826 3.27708435 0.06056213 C4.49827469 0.08065842 5.71946503 0.1007547 6.97766113 0.12145996 C8.32022822 0.14866039 9.66279308 0.17597116 11.00535583 0.2033844 C12.3715539 0.2276759 13.73775999 0.25151993 15.10397339 0.27493286 C18.7060406 0.33787051 22.30796638 0.40690945 25.90989685 0.47718811 C29.58292684 0.5477844 33.25605738 0.61265337 36.92918396 0.67799377 C44.14088369 0.80713079 51.35244366 0.94270881 58.56394958 1.08229065 C58.56394958 1.41229065 58.56394958 1.74229065 58.56394958 2.08229065 C44.04394958 2.41229065 29.52394958 2.74229065 14.56394958 3.08229065 C14.56394958 3.41229065 14.56394958 3.74229065 14.56394958 4.08229065 C8.95394958 4.08229065 3.34394958 4.08229065 -2.43605042 4.08229065 C-2.76605042 3.09229065 -3.09605042 2.10229065 -3.43605042 1.08229065 C-2.43605042 0.08229065 -2.43605042 0.08229065 0 0 Z " fill="#0E8EE0" transform="translate(392.43605041503906,405.91770935058594)"/>
<path d="M0 0 C0.33 0 0.66 0 1 0 C1 17.49 1 34.98 1 53 C2.65 52.34 4.3 51.68 6 51 C6.33 51.99 6.66 52.98 7 54 C4.69 54.66 2.38 55.32 0 56 C0 37.52 0 19.04 0 0 Z " fill="#088DDB" transform="translate(679,239)"/>
<path d="M0 0 C0.99 0.33 1.98 0.66 3 1 C1.576875 1.3403125 1.576875 1.3403125 0.125 1.6875 C-3.14140917 2.66525174 -3.14140917 2.66525174 -4.1875 5.3125 C-4.5896875 6.6428125 -4.5896875 6.6428125 -5 8 C-6.5 10.8125 -6.5 10.8125 -8 13 C-8.66 13 -9.32 13 -10 13 C-9.86722656 13.66386719 -9.73445313 14.32773437 -9.59765625 15.01171875 C-8.73177083 19.34114583 -7.86588542 23.67057292 -7 28 C-10.49827014 24.65382857 -11.1854585 22.66013628 -11.3125 17.8125 C-11.25435979 12.26010958 -10.33855845 9.42133417 -7 5 C-4.72528589 2.94192533 -2.7327618 1.3663809 0 0 Z " fill="#0970D0" transform="translate(389,453)"/>
<path d="M0 0 C0.33 0 0.66 0 1 0 C1.04951788 4.4840341 1.08577526 8.96792239 1.10986328 13.45214844 C1.11990744 14.97691623 1.13354531 16.50166484 1.15087891 18.02636719 C1.17519738 20.22075138 1.18649889 22.41488042 1.1953125 24.609375 C1.20578613 25.92905273 1.21625977 27.24873047 1.22705078 28.60839844 C1 32 1 32 -1 36 C-1.33 30.06 -1.66 24.12 -2 18 C-1.67 18 -1.34 18 -1 18 C-0.505 9.09 -0.505 9.09 0 0 Z " fill="#2192DD" transform="translate(341,267)"/>
<path d="M0 0 C3.63 0 7.26 0 11 0 C11 0.33 11 0.66 11 1 C17.93 1.33 24.86 1.66 32 2 C32 2.33 32 2.66 32 3 C27.76419747 3.07407906 23.52873659 3.12856696 19.29248047 3.16479492 C17.85100742 3.17989483 16.40958041 3.20037658 14.96826172 3.22631836 C12.89799657 3.2626513 10.82833793 3.27971329 8.7578125 3.29296875 C7.5114502 3.3086792 6.26508789 3.32438965 4.98095703 3.34057617 C3.99724121 3.22818604 3.01352539 3.1157959 2 3 C1.34 2.01 0.68 1.02 0 0 Z " fill="#0488DC" transform="translate(428,606)"/>
<path d="M0 0 C0 0.66 0 1.32 0 2 C-1.03447266 2.22042969 -1.03447266 2.22042969 -2.08984375 2.4453125 C-9.09617645 4.1176059 -14.28155901 6.63704132 -20 11 C-17.69408138 5.66117363 -13.47941589 3.26994472 -8.4375 0.6875 C-5.54417222 -0.12856681 -2.99141068 -0.13913538 0 0 Z " fill="#1070CD" transform="translate(396,658)"/>
<path d="M0 0 C0.66 0.33 1.32 0.66 2 1 C-8.35820896 13.02985075 -8.35820896 13.02985075 -14 17 C-12.70396588 14.17131143 -11.30810402 12.0298979 -9.1796875 9.765625 C-8.64472656 9.19199219 -8.10976563 8.61835938 -7.55859375 8.02734375 C-7.00300781 7.44082031 -6.44742188 6.85429687 -5.875 6.25 C-5.31167969 5.64800781 -4.74835937 5.04601562 -4.16796875 4.42578125 C-2.78275854 2.94665849 -1.3919271 1.47280359 0 0 Z " fill="#0869CA" transform="translate(645,374)"/>
<path d="M0 0 C-0.33 0.66 -0.66 1.32 -1 2 C-7.93 1.505 -7.93 1.505 -15 1 C-15 0.67 -15 0.34 -15 0 C-13.58622218 -0.36552803 -12.16879424 -0.71695495 -10.75 -1.0625 C-9.96109375 -1.25972656 -9.1721875 -1.45695313 -8.359375 -1.66015625 C-5.07563594 -2.13314515 -2.92830061 -1.46415031 0 0 Z " fill="#1389D8" transform="translate(777,733)"/>
<path d="M0 0 C0 2.83967231 -0.40267181 5.23735711 -1 8 C-1.66 8 -2.32 8 -3 8 C-3 8.99 -3 9.98 -3 11 C-3.66 11 -4.32 11 -5 11 C-5.33 11.66 -5.66 12.32 -6 13 C-5.58221009 7.2902045 -3.42453429 4.39042858 0 0 Z " fill="#0B6CCA" transform="translate(519,676)"/>
<path d="M0 0 C0.66 0.33 1.32 0.66 2 1 C-0.18416406 4.27624608 -1.66981539 5.03216364 -5 7 C-7.05480247 8.60999817 -9.02031845 10.29655308 -11 12 C-9.49650623 8.33213607 -7.36271208 6.31089607 -4.375 3.75 C-3.14910156 2.69039063 -3.14910156 2.69039063 -1.8984375 1.609375 C-1.27195312 1.07828125 -0.64546875 0.5471875 0 0 Z " fill="#0766C8" transform="translate(473,118)"/>
<path d="M0 0 C4.29 0 8.58 0 13 0 C13.33 1.32 13.66 2.64 14 4 C12.35 4 10.7 4 9 4 C9 3.01 9 2.02 9 1 C6.03 1 3.06 1 0 1 C0 0.67 0 0.34 0 0 Z " fill="#068BDC" transform="translate(543,603)"/>
<path d="M0 0 C0.66 0.33 1.32 0.66 2 1 C1.875 2.75 1.875 2.75 1 5 C-2.0625 7.25 -2.0625 7.25 -5 9 C-5.66 8.67 -6.32 8.34 -7 8 C-4.69 5.36 -2.38 2.72 0 0 Z " fill="#117CD7" transform="translate(701,468)"/>
<path d="M0 0 C0.66 0 1.32 0 2 0 C0.75120909 3.74637273 -1.15795107 5.29013939 -4 8 C-5.1446875 9.1446875 -5.1446875 9.1446875 -6.3125 10.3125 C-6.869375 10.869375 -7.42625 11.42625 -8 12 C-8.66 11.67 -9.32 11.34 -10 11 C-8.38150935 9.16053461 -6.75581169 7.32848583 -5.125 5.5 C-4.66480469 4.97535156 -4.20460938 4.45070313 -3.73046875 3.91015625 C-2.52827924 2.56858245 -1.26754054 1.28000815 0 0 Z " fill="#0D6ECD" transform="translate(594,431)"/>
<path d="M0 0 C1 3 1 3 -0.375 5.9375 C-0.91125 6.948125 -1.4475 7.95875 -2 9 C-2.185625 9.7425 -2.37125 10.485 -2.5625 11.25 C-3 13 -3 13 -5 15 C-4.5188509 9.22621075 -2.81532819 5.04140164 0 0 Z " fill="#0665CA" transform="translate(239,640)"/>
<path d="M0 0 C-1.11375 0.45375 -2.2275 0.9075 -3.375 1.375 C-6.96199008 2.72465986 -6.96199008 2.72465986 -9 5 C-11.625 5.125 -11.625 5.125 -14 5 C-11.85073619 2.60894402 -10.00963087 1.36721146 -7 0.25 C-5.9790625 -0.14445313 -5.9790625 -0.14445313 -4.9375 -0.546875 C-3 -1 -3 -1 0 0 Z " fill="#0C62C5" transform="translate(676,787)"/>
<path d="M0 0 C3.96 0.33 7.92 0.66 12 1 C12 1.33 12 1.66 12 2 C11.00419922 2.07347656 11.00419922 2.07347656 9.98828125 2.1484375 C3.2887764 2.71125812 3.2887764 2.71125812 -3 5 C-2.67 4.01 -2.34 3.02 -2 2 C-1.34 2 -0.68 2 0 2 C0 1.34 0 0.68 0 0 Z " fill="#E4F2F6" transform="translate(385,372)"/>
<path d="M0 0 C0.33 0 0.66 0 1 0 C2 4 3 8 4 12 C0.92203555 9.5177706 0.05603723 8.25432283 -0.8125 4.3125 C-0.874375 3.219375 -0.93625 2.12625 -1 1 C-0.67 0.67 -0.34 0.34 0 0 Z " fill="#DEEFF3" transform="translate(267,656)"/>
<path d="M0 0 C1.65 1.32 3.3 2.64 5 4 C4.67 4.66 4.34 5.32 4 6 C2.68 5.34 1.36 4.68 0 4 C0 2.68 0 1.36 0 0 Z " fill="#0489DE" transform="translate(745,320)"/>
<path d="M0 0 C1.04187157 3.12561472 1.23843794 4.04680182 0 7 C-2.0625 8.25 -2.0625 8.25 -4 9 C-3.35455571 5.51460083 -1.89865603 2.97180943 0 0 Z " fill="#076AC9" transform="translate(582,718)"/>
<path d="M0 0 C2.97 0 5.94 0 9 0 C5.81237635 2.12508244 3.73487777 2.5020163 0 3 C0 2.01 0 1.02 0 0 Z " fill="#147ED9" transform="translate(687,291)"/>
<path d="M0 0 C1.9375 0.8125 1.9375 0.8125 4 2 C4.33 2.99 4.66 3.98 5 5 C4.67 5.66 4.34 6.32 4 7 C3.34 7 2.68 7 2 7 C1.34 4.69 0.68 2.38 0 0 Z " fill="#0E81D9" transform="translate(705,212)"/>
</svg>
